<svg width="60" height="60" viewBox="0 0 60 60" fill="none" xmlns="http://www.w3.org/2000/svg">
<path fill-rule="evenodd" clip-rule="evenodd" d="M24.7715 9.29682C27.0665 5.21682 32.9375 5.21682 35.2295 9.29682L51.9695 39.0568C54.2195 43.0588 51.3305 47.9968 46.7435 47.9968H13.2605C8.67052 47.9968 5.78152 43.0588 8.03152 39.0568L24.7715 9.29682ZM33.0005 38.9998C33.0005 39.7955 32.6845 40.5585 32.1218 41.1211C31.5592 41.6838 30.7962 41.9998 30.0005 41.9998C29.2049 41.9998 28.4418 41.6838 27.8792 41.1211C27.3166 40.5585 27.0005 39.7955 27.0005 38.9998C27.0005 38.2042 27.3166 37.4411 27.8792 36.8785C28.4418 36.3159 29.2049 35.9998 30.0005 35.9998C30.7962 35.9998 31.5592 36.3159 32.1218 36.8785C32.6845 37.4411 33.0005 38.2042 33.0005 38.9998ZM30.0005 14.9998C29.2049 14.9998 28.4418 15.3159 27.8792 15.8785C27.3166 16.4411 27.0005 17.2042 27.0005 17.9998V26.9998C27.0005 27.7955 27.3166 28.5585 27.8792 29.1211C28.4418 29.6837 29.2049 29.9998 30.0005 29.9998C30.7962 29.9998 31.5592 29.6837 32.1218 29.1211C32.6845 28.5585 33.0005 27.7955 33.0005 26.9998V17.9998C33.0005 17.2042 32.6845 16.4411 32.1218 15.8785C31.5592 15.3159 30.7962 14.9998 30.0005 14.9998Z" fill="#D52D2D"/>
</svg>
