<svg width="32" height="32" viewBox="0 0 32 32" fill="none" xmlns="http://www.w3.org/2000/svg">
<path d="M17.332 11.9998H23.332L22.6654 14.6665H17.332V26.6665H14.6654V14.6665H9.33203V11.9998H14.6654V9.50384C14.6654 7.1265 14.9134 6.26384 15.3774 5.3945C15.8324 4.53583 16.5347 3.83352 17.3934 3.3785C18.2627 2.9145 19.1254 2.6665 21.5027 2.6665C22.1996 2.6665 22.8094 2.73317 23.332 2.8665V5.33317H21.5027C19.7374 5.33317 19.2 5.43717 18.6507 5.7305C18.2564 5.93651 17.9348 6.25857 17.7294 6.65317C17.436 7.20117 17.332 7.7385 17.332 9.50384V11.9998Z" fill="#4F4B4B"/>
</svg>
