<svg width="32" height="32" viewBox="0 0 32 32" fill="none" xmlns="http://www.w3.org/2000/svg">
<path d="M21.8182 5.5H27.8182C27.2174 11.2421 24.5097 16.5578 20.2182 20.42C15.8932 24.3092 10.2747 26.4482 4.45822 26.42H2.91822V20.8L7.99822 19.04L9.67822 21.88L10.8582 24L12.9982 22.76C16.8298 20.536 20.0949 17.4557 22.5382 13.76L23.9982 11.46L21.5582 10.18L19.5582 9.14L21.7382 5.5M21.7382 3C21.3069 3.00322 20.8837 3.11709 20.509 3.3307C20.1343 3.54431 19.8207 3.85051 19.5982 4.22L17.4982 7.86C17.3201 8.15093 17.2039 8.47548 17.1569 8.81336C17.1099 9.15124 17.1331 9.49517 17.2251 9.82367C17.3171 10.1522 17.4759 10.4582 17.6915 10.7225C17.9071 10.9868 18.1749 11.2039 18.4782 11.36L20.4782 12.4C18.2455 15.7715 15.2604 18.5785 11.7582 20.6L9.99822 17.78C9.79224 17.425 9.50204 17.1262 9.15324 16.91C8.80444 16.6937 8.40776 16.5666 7.99822 16.54C7.71882 16.5386 7.44132 16.586 7.17822 16.68L1.99822 18.44C1.52652 18.6266 1.12276 18.9523 0.840556 19.3739C0.558348 19.7954 0.411048 20.2928 0.418219 20.8V26.5C0.418219 27.163 0.681611 27.7989 1.15045 28.2678C1.61929 28.7366 2.25518 29 2.91822 29H4.41822C10.8372 29.0017 17.0299 26.6289 21.8042 22.3383C26.5784 18.0477 29.5968 12.1427 30.2782 5.76C30.3116 5.41114 30.2718 5.05916 30.1615 4.72654C30.0512 4.39391 29.8727 4.08796 29.6374 3.82822C29.4021 3.56848 29.1153 3.36067 28.7951 3.21807C28.475 3.07546 28.1287 3.00119 27.7782 3H21.7382Z" fill="#868AF4"/>
</svg>
