<svg width="32" height="32" viewBox="0 0 32 32" fill="none" xmlns="http://www.w3.org/2000/svg">
<path d="M16.0013 21.3332C17.4158 21.3332 18.7723 20.7713 19.7725 19.7711C20.7727 18.7709 21.3346 17.4143 21.3346 15.9998C21.3346 14.5853 20.7727 13.2288 19.7725 12.2286C18.7723 11.2284 17.4158 10.6665 16.0013 10.6665C14.5868 10.6665 13.2303 11.2284 12.2301 12.2286C11.2299 13.2288 10.668 14.5853 10.668 15.9998C10.668 17.4143 11.2299 18.7709 12.2301 19.7711C13.2303 20.7713 14.5868 21.3332 16.0013 21.3332Z" stroke="#4F4B4B" stroke-width="1.5" stroke-linecap="round" stroke-linejoin="round"/>
<path d="M4 21.3333V10.6667C4 8.89856 4.70238 7.20286 5.95262 5.95262C7.20286 4.70238 8.89856 4 10.6667 4H21.3333C23.1014 4 24.7971 4.70238 26.0474 5.95262C27.2976 7.20286 28 8.89856 28 10.6667V21.3333C28 23.1014 27.2976 24.7971 26.0474 26.0474C24.7971 27.2976 23.1014 28 21.3333 28H10.6667C8.89856 28 7.20286 27.2976 5.95262 26.0474C4.70238 24.7971 4 23.1014 4 21.3333Z" stroke="#4F4B4B" stroke-width="1.5"/>
<path d="M23.332 8.68019L23.3454 8.66553" stroke="#4F4B4B" stroke-width="1.5" stroke-linecap="round" stroke-linejoin="round"/>
</svg>
