<svg width="32" height="32" viewBox="0 0 32 32" fill="none" xmlns="http://www.w3.org/2000/svg">
<path fill-rule="evenodd" clip-rule="evenodd" d="M2.66797 4V22.6667H13.3598C13.343 22.4449 13.3346 22.2225 13.3346 22C13.3346 21.3116 13.4148 20.642 13.5665 20H5.33466V8L14.668 16.0633L24.0013 8V13.5653C24.9476 13.789 25.8492 14.1712 26.668 14.6958V4H2.66797ZM21.668 6.66669L14.668 12.6667L7.66797 6.66669H21.668ZM25.5528 27.2181L25.8311 28.7619C24.6729 29.1428 23.4923 29.3333 22.2892 29.3333C20.0752 29.3333 18.2738 28.6884 16.8852 27.3985C15.4071 26.0351 14.668 24.2306 14.668 21.9849C14.668 19.8663 15.3687 18.1253 16.77 16.7619C18.2162 15.3651 20.0495 14.6667 22.27 14.6667C24.2794 14.6667 25.9399 15.208 27.2517 16.2908C27.9044 16.8321 28.4132 17.4971 28.7779 18.2857C29.149 19.1011 29.3346 20 29.3346 20.9824C29.3346 22.5397 28.9027 23.7828 28.0388 24.7118C27.2645 25.5405 26.3911 25.9549 25.4184 25.9549C24.3817 25.9549 23.8122 25.4837 23.7098 24.5414C23.0699 25.4837 22.2061 25.9549 21.1182 25.9549C20.2416 25.9549 19.5472 25.7009 19.0353 25.193C18.4786 24.645 18.2003 23.8931 18.2002 22.9373C18.2002 22.3024 18.3266 21.6792 18.5794 21.0677C18.8322 20.4561 19.1825 19.9265 19.6304 19.4787C20.4815 18.6299 21.5757 18.2055 22.9132 18.2055C23.9242 18.2055 24.8681 18.3693 25.7447 18.6968L25.1017 22.8672C25.0377 23.2749 25.0057 23.5723 25.0057 23.7594C25.0057 24.2205 25.2008 24.4511 25.5912 24.4511C26.1031 24.4511 26.5606 24.1404 26.9638 23.5188C27.4565 22.7636 27.7028 21.868 27.7028 20.8321C27.7028 19.4085 27.2229 18.299 26.263 17.5037C25.2008 16.6283 23.8826 16.1905 22.3084 16.1905C21.0926 16.1905 19.9856 16.4913 18.9873 17.0928C18.0466 17.6608 17.3395 18.4294 16.866 19.3985C16.4885 20.1872 16.2997 21.0627 16.2997 22.0251C16.2997 23.8496 16.9332 25.2966 18.2002 26.3659C19.3136 27.3083 20.7278 27.7794 22.4428 27.7794C23.4218 27.7794 24.4585 27.5923 25.5528 27.2181ZM23.7386 19.7394C23.4123 19.6457 23.1467 19.599 22.942 19.599C22.5772 19.599 22.2157 19.6942 21.8573 19.8847C21.4989 20.0752 21.1918 20.3375 20.9358 20.6717C20.4111 21.3467 20.1487 22.1019 20.1487 22.9373C20.1487 23.4052 20.2639 23.7745 20.4943 24.0451C20.7247 24.3158 21.0382 24.4511 21.435 24.4511C22.0109 24.4511 22.4876 24.2038 22.8652 23.7092C23.0635 23.4553 23.2203 22.9641 23.3355 22.2356L23.7386 19.7394Z" fill="#36C6DD"/>
</svg>
