<svg width="40" height="40" viewBox="0 0 40 40" fill="none" xmlns="http://www.w3.org/2000/svg">
<path d="M26.6659 14.36V9.36003H13.3326V14.36H11.6659V7.69336H28.3326V14.36H26.6659ZM29.3576 20.1934C29.8298 20.1934 30.2259 20.0334 30.5459 19.7134C30.8659 19.3934 31.0254 18.9978 31.0243 18.5267C31.0232 18.0556 30.8637 17.6595 30.5459 17.3384C30.2282 17.0172 29.832 16.8572 29.3576 16.8584C28.8832 16.8595 28.4876 17.0195 28.1709 17.3384C27.8543 17.6572 27.6943 18.0534 27.6909 18.5267C27.6876 19 27.8476 19.3956 28.1709 19.7134C28.4943 20.0311 28.8887 20.1911 29.3576 20.1934ZM26.6659 31.6667V24.1034H13.3326V31.6667H26.6659ZM28.3326 33.3334H11.6659V26.6667H5.96094V17.6934C5.96094 16.7489 6.28149 15.9572 6.9226 15.3184C7.56372 14.6795 8.35427 14.3595 9.29427 14.3584H30.7043C31.6487 14.3584 32.4404 14.6784 33.0793 15.3184C33.7182 15.9584 34.0376 16.7495 34.0376 17.6917V26.6667H28.3326V33.3334ZM32.3709 25V17.6934C32.3709 17.2211 32.2115 16.825 31.8926 16.505C31.5737 16.185 31.1776 16.025 30.7043 16.025H9.29427C8.82205 16.025 8.42649 16.185 8.1076 16.505C7.78872 16.825 7.62872 17.2211 7.6276 17.6934V25H11.6659V22.4367H28.3326V25H32.3709Z" fill="#299DF0"/>
</svg>
